<!DOCTYPE svg PUBLIC "-//W3C//DTD SVG 1.1//EN" "http://www.w3.org/Graphics/SVG/1.1/DTD/svg11.dtd">
<!-- Uploaded to: SVG Repo, www.svgrepo.com, Transformed by: SVG Repo Mixer Tools -->
<svg fill="#e9784a" height="800px" width="800px" version="1.1" id="Layer_1" xmlns="http://www.w3.org/2000/svg" xmlns:xlink="http://www.w3.org/1999/xlink" viewBox="0 0 512 512" xml:space="preserve">
<g id="SVGRepo_bgCarrier" stroke-width="0"/>
<g id="SVGRepo_tracerCarrier" stroke-linecap="round" stroke-linejoin="round"/>
<g id="SVGRepo_iconCarrier"> <g> <g> <g> <path d="M490.667,234.667h-22.392C458.269,133.873,378.127,53.731,277.333,43.725V21.333C277.333,9.551,267.782,0,256,0 s-21.333,9.551-21.333,21.333v22.392C133.873,53.731,53.731,133.873,43.725,234.667H21.333C9.551,234.667,0,244.218,0,256 s9.551,21.333,21.333,21.333h22.392c10.006,100.794,90.147,180.935,190.941,190.941v22.392c0,11.782,9.551,21.333,21.333,21.333 s21.333-9.551,21.333-21.333v-22.392c100.794-10.006,180.935-90.148,190.941-190.941h22.392c11.782,0,21.333-9.551,21.333-21.333 S502.449,234.667,490.667,234.667z M256,426.667c-94.266,0-170.667-76.401-170.667-170.667S161.734,85.333,256,85.333 S426.667,161.734,426.667,256S350.266,426.667,256,426.667z"/> <path d="M341.333,234.667h-24.987c-6.426-18.185-20.828-32.587-39.013-39.013v-24.987c0-11.782-9.551-21.333-21.333-21.333 s-21.333,9.551-21.333,21.333v24.987c-18.185,6.426-32.587,20.828-39.013,39.013h-24.987c-11.782,0-21.333,9.551-21.333,21.333 s9.551,21.333,21.333,21.333h24.987c6.426,18.185,20.828,32.587,39.013,39.013v24.987c0,11.782,9.551,21.333,21.333,21.333 s21.333-9.551,21.333-21.333v-24.987c18.185-6.426,32.587-20.828,39.013-39.013h24.987c11.782,0,21.333-9.551,21.333-21.333 S353.115,234.667,341.333,234.667z M256,277.333c-11.791,0-21.333-9.542-21.333-21.333s9.542-21.333,21.333-21.333 s21.333,9.542,21.333,21.333S267.791,277.333,256,277.333z"/> </g> </g> </g> </g>
</svg>