<svg xmlns="http://www.w3.org/2000/svg" xmlns:xlink="http://www.w3.org/1999/xlink" width="1920" height="100%" viewBox="0 0 1920 780" preserveAspectRatio="none">
  <defs>
    <clipPath id="clip-path">
      <rect id="Our_Features_1_Bg" data-name="Our Features 1 Bg" width="1920" height="780" transform="translate(0 2212)" fill="#fff4f0"/>
    </clipPath>
    <linearGradient id="linear-gradient" x1="0.17" y1="0.986" x2="0.982" y2="0.053" gradientUnits="objectBoundingBox">
      <stop offset="0" stop-color="#ae8281"/>
      <stop offset="0.114" stop-color="#b28584"/>
      <stop offset="0.23" stop-color="#be8f8e"/>
      <stop offset="0.346" stop-color="#d2a19f"/>
      <stop offset="0.453" stop-color="#ecb7b5"/>
      <stop offset="0.586" stop-color="#fdd1cc"/>
      <stop offset="0.673" stop-color="#fdd1cc"/>
      <stop offset="0.688" stop-color="#fdd1cc"/>
      <stop offset="0.742" stop-color="#ecb7b5"/>
      <stop offset="0.823" stop-color="#f2c2ba"/>
      <stop offset="0.962" stop-color="#cf918f"/>
      <stop offset="1" stop-color="#cf918f"/>
    </linearGradient>
    <linearGradient id="linear-gradient-2" y1="0.5" x2="1" y2="0.5" gradientUnits="objectBoundingBox">
      <stop offset="0" stop-color="#ecb7b5"/>
      <stop offset="0.742" stop-color="#fdd1cc"/>
    </linearGradient>
    <linearGradient id="linear-gradient-3" x1="-0.003" y1="0.5" x2="1.007" y2="0.5" gradientUnits="objectBoundingBox">
      <stop offset="0" stop-color="#fff" stop-opacity="0.102"/>
      <stop offset="0.29" stop-color="#fff" stop-opacity="0.675"/>
      <stop offset="0.462" stop-color="#fff"/>
      <stop offset="0.507" stop-color="#fff" stop-opacity="0.957"/>
      <stop offset="0.586" stop-color="#fff" stop-opacity="0.843"/>
      <stop offset="0.689" stop-color="#fff" stop-opacity="0.659"/>
      <stop offset="0.812" stop-color="#fff" stop-opacity="0.404"/>
      <stop offset="0.951" stop-color="#fff" stop-opacity="0.082"/>
      <stop offset="0.985" stop-color="#fff" stop-opacity="0"/>
    </linearGradient>
  </defs>
  <g id="Our_Features_1_Bg-2" data-name="Our Features 1 Bg" transform="translate(0 -2212)">
    <rect id="Our_Features_1_Bg-3" data-name="Our Features 1 Bg" width="1920" height="780" transform="translate(0 2212)" fill="#fff4f0"/>
    <g id="Mask_Group_21" data-name="Mask Group 21" clip-path="url(#clip-path)">
      <g id="Circle_Shape" data-name="Circle Shape" transform="translate(-540.92 2782.165)">
        <g id="Group_10" data-name="Group 10" transform="translate(508.92 -12.302)" style="isolation: isolate">
          <path id="Path_56" data-name="Path 56" d="M716.328,44.542q.049-.791.075-1.58c.007-.228.027-.46.032-.685,0-.138-.013-.268-.013-.4q.038-2.441-.122-4.808c-.008-.1,0-.205-.01-.305-.01-.15-.04-.29-.052-.438-.123-1.505-.3-2.993-.538-4.45-.008-.043-.008-.09-.015-.133-.02-.11-.052-.213-.07-.323q-.364-2.066-.88-4.065c-.027-.1-.043-.213-.068-.315-.012-.043-.03-.083-.04-.125-.36-1.338-.782-2.648-1.245-3.938-.047-.135-.08-.275-.13-.408-.04-.113-.095-.218-.138-.328q-.716-1.9-1.573-3.72c-.04-.08-.068-.168-.105-.248q-.412-.855-.855-1.7L701.974.274c.338.638.648,1.288.958,1.938q.862,1.826,1.575,3.725c.09.243.177.488.265.73.463,1.29.885,2.6,1.247,3.943.037.145.068.293.1.44q.521,2,.883,4.068c.028.15.06.3.085.448.243,1.46.412,2.95.538,4.455.02.248.042.493.06.74.11,1.578.147,3.185.125,4.81-.005.36-.01.72-.023,1.08-.015.528-.042,1.06-.073,1.59-.03.488-.06.975-.1,1.468-.043.533-.1,1.07-.155,1.61-.05.473-.1.945-.168,1.42-.095.74-.21,1.485-.332,2.233-.065.4-.125.8-.2,1.2-.167.918-.36,1.843-.568,2.77-.053.235-.095.468-.15.7-.162.7-.355,1.405-.542,2.11-.1.38-.185.755-.293,1.135q-.458,1.631-1,3.283-.585,1.781-1.255,3.545c-.057.153-.123.3-.18.45q-.7,1.819-1.488,3.618c-.182.42-.378.84-.568,1.263q-.656,1.44-1.362,2.865c-.205.418-.41.838-.625,1.253q-.9,1.74-1.865,3.46c-.09.16-.172.323-.265.483-.743,1.3-1.525,2.588-2.335,3.868-.233.37-.478.735-.715,1.1q-.908,1.4-1.858,2.778c-.285.41-.573.823-.863,1.233q-1.035,1.451-2.125,2.885c-.22.29-.43.58-.655.87q-1.418,1.834-2.923,3.633c-.24.288-.49.57-.735.855q-1.177,1.384-2.4,2.745c-.318.353-.638.7-.958,1.048-1.233,1.338-2.488,2.663-3.788,3.963l-.047.05c-1.315,1.313-2.673,2.6-4.05,3.868-.28.258-.557.513-.838.765q-3.244,2.944-6.7,5.725c-.145.118-.287.238-.435.355q-3.053,2.438-6.258,4.73c-.167.12-.333.245-.5.365-1.875,1.333-3.793,2.623-5.735,3.88-.3.193-.593.388-.893.578q-2.663,1.7-5.408,3.3c-.355.208-.713.41-1.07.615-1.81,1.035-3.638,2.048-5.49,3.015-.1.052-.2.1-.293.15q-2.614,1.354-5.28,2.608c-.375.178-.75.358-1.125.533q-2.7,1.253-5.445,2.4c-.338.14-.677.275-1.015.413q-2.581,1.061-5.2,2.028c-.255.093-.505.193-.76.285q-2.9,1.054-5.845,1.978c-.43.138-.863.273-1.292.405-1.81.558-3.625,1.093-5.45,1.578-1.05.278-2.108.5-3.163.755-1.563.378-3.128.755-4.7,1.078-1.94.4-3.883.765-5.83,1.078-.373.06-.743.11-1.115.168-1.7.258-3.393.47-5.088.663-.648.07-1.293.15-1.938.213-2.138.208-4.275.378-6.41.473-1.118.05-2.2.042-3.3.063-.958.015-1.933.06-2.878.053-1.065-.01-2.1-.07-3.145-.11-.918-.033-1.855-.04-2.758-.1-1.045-.065-2.055-.18-3.08-.275-.868-.083-1.755-.135-2.608-.238-1.025-.122-2.012-.3-3.015-.448-.815-.125-1.653-.223-2.455-.368-.983-.175-1.925-.4-2.885-.605-.783-.17-1.588-.313-2.355-.5-.93-.225-1.818-.5-2.725-.753-.758-.213-1.535-.4-2.278-.633-.92-.29-1.8-.623-2.69-.94-.685-.243-1.393-.46-2.062-.72-.89-.345-1.733-.733-2.593-1.108-.635-.275-1.293-.528-1.913-.818-.81-.38-1.578-.805-2.363-1.213-.623-.325-1.27-.628-1.878-.968-.763-.428-1.48-.9-2.215-1.353-.583-.358-1.188-.7-1.753-1.073-.755-.5-1.458-1.043-2.18-1.57-.5-.365-1.025-.71-1.51-1.09-.72-.565-1.39-1.17-2.075-1.763-.437-.378-.9-.738-1.328-1.128-.642-.593-1.233-1.223-1.84-1.84-.417-.425-.865-.833-1.267-1.27-.64-.7-1.223-1.428-1.82-2.153-.323-.393-.673-.765-.985-1.165-.658-.85-1.255-1.735-1.855-2.623-.2-.3-.437-.59-.635-.9q-1.17-1.811-2.173-3.713l8.608,16.3q1.005,1.905,2.173,3.713c.2.31.43.6.635.9.6.885,1.2,1.773,1.858,2.623.31.4.66.773.985,1.165.595.725,1.178,1.458,1.818,2.153.4.438.85.845,1.27,1.27.608.618,1.2,1.248,1.838,1.84.445.408.93.783,1.39,1.18.665.573,1.313,1.16,2.013,1.708.508.4,1.06.76,1.585,1.145.7.51,1.377,1.033,2.105,1.518.565.375,1.172.713,1.755,1.073.735.455,1.45.925,2.215,1.353.6.34,1.253.643,1.878.965.782.408,1.55.833,2.363,1.215.65.305,1.343.57,2.01.86.828.358,1.638.733,2.49,1.063.717.278,1.473.513,2.208.773.847.3,1.678.615,2.548.888.755.235,1.548.428,2.323.645.89.25,1.765.52,2.68.743.8.2,1.64.345,2.46.52.925.2,1.833.415,2.778.585.858.153,1.753.26,2.63.393.945.143,1.873.305,2.84.42.882.105,1.8.165,2.7.248.995.09,1.975.205,2.99.268.927.057,1.89.068,2.833.1,1.022.038,2.028.1,3.068.105.99.008,2.01-.035,3.018-.053s2-.01,3.023-.055l.138-.007c2.135-.1,4.273-.265,6.413-.47.645-.062,1.29-.143,1.935-.215.833-.092,1.667-.165,2.5-.275.865-.115,1.725-.255,2.588-.388.373-.055.745-.105,1.115-.165,1.69-.273,3.38-.565,5.065-.9.255-.053.51-.123.765-.175,1.573-.325,3.138-.7,4.7-1.08.74-.178,1.488-.318,2.225-.51.313-.08.625-.162.935-.245,1.825-.485,3.64-1.02,5.45-1.575.225-.07.45-.125.675-.2.207-.065.41-.145.617-.21,1.96-.623,3.91-1.275,5.845-1.978l.21-.073c.185-.067.365-.145.55-.215q2.618-.964,5.2-2.025c.22-.09.448-.168.667-.26.118-.048.23-.1.348-.152q2.745-1.151,5.445-2.405c.152-.07.307-.13.46-.2.225-.105.443-.223.667-.328,1.775-.84,3.538-1.705,5.278-2.61l.23-.113.063-.035c1.855-.968,3.68-1.98,5.49-3.015.2-.118.415-.223.618-.34.152-.09.3-.188.453-.278q2.741-1.6,5.41-3.3c.122-.08.25-.15.373-.228.177-.113.343-.238.518-.35q2.918-1.886,5.735-3.883c.057-.04.12-.077.177-.118.11-.08.213-.168.323-.245q3.2-2.3,6.258-4.73c.057-.045.117-.085.172-.13.09-.073.172-.153.262-.225q3.458-2.779,6.7-5.728c.108-.1.228-.188.335-.285.17-.155.328-.318.495-.475,1.38-1.273,2.743-2.558,4.058-3.875l.037-.038c1.3-1.3,2.56-2.63,3.8-3.97.158-.173.33-.338.485-.508s.313-.363.472-.54q1.227-1.361,2.405-2.745c.242-.288.492-.57.732-.858q1.5-1.8,2.925-3.633c.223-.288.433-.58.653-.87q1.088-1.433,2.125-2.885c.29-.408.578-.82.863-1.233q.952-1.376,1.858-2.775c.24-.368.483-.735.718-1.105.808-1.278,1.59-2.568,2.333-3.865.092-.16.175-.323.265-.483q.972-1.721,1.865-3.46c.215-.418.42-.835.628-1.253q.7-1.429,1.36-2.868c.19-.42.385-.84.57-1.263q.784-1.8,1.485-3.615c.05-.128.107-.25.155-.375l.025-.075q.668-1.766,1.255-3.545.54-1.654,1-3.283c.108-.383.2-.758.3-1.135.185-.705.377-1.413.54-2.11l.025-.1c.048-.205.08-.405.125-.61.208-.928.4-1.85.568-2.768.075-.4.132-.8.2-1.2.122-.745.238-1.488.332-2.225.025-.185.063-.373.085-.558.035-.293.052-.578.083-.87.057-.538.112-1.073.157-1.605Q716.288,45.276,716.328,44.542Z" transform="translate(-505.402 31.167)" fill="url(#linear-gradient)"/>
          <g id="Group_8" data-name="Group 8">
            <g id="Group_7" data-name="Group 7">
              <path id="Path_57" data-name="Path 57" d="M608.634-7.757a133.533,133.533,0,0,1,28.247-4.425c53.9-2.41,85.628,32.155,70.853,77.215-12.191,37.17-52.2,69.872-96.089,81.538A133.533,133.533,0,0,1,583.4,151c-53.921,2.415-85.629-32.155-70.853-77.215C524.718,36.613,564.738,3.908,608.634-7.757Z" transform="translate(-508.921 12.302)" fill="url(#linear-gradient-2)"/>
            </g>
          </g>
          <g id="Group_9" data-name="Group 9" transform="translate(29.366 56.74)" opacity="0.69" style="mix-blend-mode: overlay;isolation: isolate">
            <path id="Path_58" data-name="Path 58" d="M693.73,10.393s-.008.885-.025,2.55a60.613,60.613,0,0,1-.64,7.188,75.718,75.718,0,0,1-2.5,10.953q-1.084,3.068-2.305,6.51c-.913,2.255-2.068,4.57-3.17,7.023-1.25,2.368-2.633,4.79-4.055,7.306-1.618,2.39-3.155,4.963-4.988,7.426-1.89,2.415-3.67,5.038-5.85,7.416l-3.213,3.688c-1.12,1.2-2.318,2.355-3.49,3.553a152.529,152.529,0,0,1-15.559,13.561,164.392,164.392,0,0,1-17.874,11.6,165.946,165.946,0,0,1-19.279,9.073,175.42,175.42,0,0,1-19.7,6.148,124.149,124.149,0,0,1-36.335,3.225,86.908,86.908,0,0,1-25.212-5.248,68.265,68.265,0,0,1-6.613-2.89l-2.255-1.193,2.313,1.07c1.53.643,3.775,1.593,6.718,2.555a91.042,91.042,0,0,0,25.122,4.3,128.766,128.766,0,0,0,35.75-3.928,172.938,172.938,0,0,0,19.361-6.213,164.772,164.772,0,0,0,18.919-9.083A162.467,162.467,0,0,0,646.542,85.7a150.171,150.171,0,0,0,15.426-13.233c1.163-1.168,2.35-2.293,3.465-3.468q1.624-1.8,3.22-3.573c2.208-2.29,4.015-4.825,5.935-7.16,1.865-2.38,3.433-4.875,5.088-7.193,1.458-2.438,2.88-4.8,4.168-7.1,1.143-2.37,2.3-4.605,3.3-6.8.9-2.243,1.748-4.373,2.545-6.375a75.046,75.046,0,0,0,2.9-10.746,70.41,70.41,0,0,0,.983-7.115C693.675,11.276,693.73,10.393,693.73,10.393Z" transform="translate(-520.666 -10.393)" fill="url(#linear-gradient-3)"/>
          </g>
        </g>
      </g>
    </g>
  </g>
</svg>
