<svg xmlns="http://www.w3.org/2000/svg" xmlns:xlink="http://www.w3.org/1999/xlink" width="1920" height="100%" viewBox="0 0 1920 780" preserveAspectRatio="none">
  <defs>
    <clipPath id="clip-path">
      <rect id="Our_Features_1_Bg" data-name="Our Features 1 Bg" width="1920" height="780" transform="translate(0 2212)" fill="#fff4f0"/>
    </clipPath>
    <linearGradient id="linear-gradient" y1="0.5" x2="1" y2="0.5" gradientUnits="objectBoundingBox">
      <stop offset="0" stop-color="#423549"/>
      <stop offset="0.108" stop-color="#43364a"/>
      <stop offset="0.147" stop-color="#473a51"/>
      <stop offset="0.175" stop-color="#4e415d"/>
      <stop offset="0.197" stop-color="#594c6e"/>
      <stop offset="0.216" stop-color="#675984"/>
      <stop offset="0.231" stop-color="#76689b"/>
      <stop offset="0.339" stop-color="#76689b"/>
      <stop offset="0.339" stop-color="#75679a"/>
      <stop offset="0.371" stop-color="#66597b"/>
      <stop offset="0.405" stop-color="#594c62"/>
      <stop offset="0.443" stop-color="#4f434e"/>
      <stop offset="0.486" stop-color="#483d40"/>
      <stop offset="0.54" stop-color="#443938"/>
      <stop offset="0.634" stop-color="#433836"/>
      <stop offset="0.677" stop-color="#443938"/>
      <stop offset="0.707" stop-color="#493d42"/>
      <stop offset="0.734" stop-color="#514551"/>
      <stop offset="0.758" stop-color="#5c4f68"/>
      <stop offset="0.781" stop-color="#6a5d84"/>
      <stop offset="0.796" stop-color="#76689b"/>
      <stop offset="0.827" stop-color="#655881"/>
      <stop offset="0.866" stop-color="#564868"/>
      <stop offset="0.906" stop-color="#4a3d56"/>
      <stop offset="0.95" stop-color="#44374c"/>
      <stop offset="1" stop-color="#423549"/>
    </linearGradient>
    <radialGradient id="radial-gradient" cx="0.566" cy="0.965" r="0.878" gradientTransform="translate(0.114) scale(0.772 1)" gradientUnits="objectBoundingBox">
      <stop offset="0" stop-color="#675b87"/>
      <stop offset="0.651" stop-color="#786f97"/>
      <stop offset="1" stop-color="#847da2"/>
    </radialGradient>
  </defs>
  <g id="Our_Features_1_Bg-2" data-name="Our Features 1 Bg" transform="translate(0 -2212)">
    <rect id="Our_Features_1_Bg-3" data-name="Our Features 1 Bg" width="1920" height="780" transform="translate(0 2212)" fill="#fff"/>
    <g id="Mask_Group_12" data-name="Mask Group 12" clip-path="url(#clip-path)">
      <g id="Circle_Shape" data-name="Circle Shape" transform="translate(1598.793 2042.377) rotate(30)">
        <g id="Group_13" data-name="Group 13" transform="translate(366.054 142.391)" style="isolation: isolate">
          <path id="Path_59" data-name="Path 59" d="M619.7,260.413q.5-1.321.957-2.662c.173-.518.349-1.033.513-1.555.3-.953.572-1.916.834-2.883.123-.454.256-.906.37-1.363.357-1.424.682-2.856.953-4.305l3.986-21.205c-.273,1.447-.6,2.881-.955,4.305-.112.454-.247.9-.37,1.356-.262.97-.535,1.933-.834,2.89-.165.52-.338,1.035-.513,1.551q-.453,1.34-.955,2.662c-.194.513-.391,1.025-.6,1.531-.37.915-.765,1.821-1.172,2.721-.2.439-.386.883-.594,1.318-.648,1.367-1.329,2.721-2.058,4.054-.074.133-.154.262-.228.395q-1,1.8-2.1,3.557c-.262.418-.537.83-.807,1.246-.579.891-1.172,1.777-1.789,2.649-.311.439-.621.877-.94,1.312-.653.889-1.331,1.766-2.022,2.636-.287.361-.566.727-.86,1.084q-1.483,1.809-3.072,3.557c-.12.131-.251.258-.374.391q-1.426,1.543-2.938,3.034c-.37.365-.752.72-1.128,1.082-.8.763-1.616,1.519-2.448,2.26q-.631.561-1.27,1.115c-.881.758-1.785,1.5-2.7,2.235-.393.313-.775.634-1.175.944-.52.4-1.054.794-1.584,1.191-.61.456-1.219.913-1.844,1.358-.545.389-1.1.767-1.66,1.147-.632.433-1.263.868-1.91,1.291-.57.374-1.153.735-1.734,1.1-.655.412-1.31.822-1.977,1.221-.592.357-1.2.7-1.8,1.048-.642.37-1.286.737-1.941,1.1-1.113.611-2.248,1.2-3.393,1.783-.382.194-.756.4-1.143.589q-2.3,1.138-4.687,2.191c-.37.165-.752.315-1.126.475q-1.847.8-3.739,1.546c-.577.226-1.162.444-1.745.661q-1.654.624-3.34,1.21-.932.32-1.872.632c-1.158.382-2.33.746-3.511,1.1-.585.173-1.164.355-1.751.522q-2.278.65-4.607,1.227c-.253.063-.5.135-.754.2q-2.709.659-5.488,1.215c-.549.112-1.107.207-1.658.313-1.325.251-2.655.492-4,.712q-1.309.212-2.632.4c-.68.1-1.358.2-2.045.289-1,.131-2.009.245-3.019.357-.655.074-1.308.152-1.967.218-1.122.11-2.256.2-3.391.287-.56.042-1.113.1-1.675.133-1.7.114-3.416.207-5.146.266-1.965.07-3.923.093-5.879.093-.509,0-1.016,0-1.525-.008-1.236-.011-2.465-.049-3.7-.087-1.086-.034-2.172-.07-3.253-.123s-2.186-.131-3.276-.2-2.155-.152-3.228-.247-2.167-.213-3.249-.33-2.136-.232-3.2-.37-2.142-.292-3.211-.448-2.117-.313-3.171-.488c-.961-.161-1.916-.338-2.871-.513-1.329-.245-2.653-.5-3.969-.773q-1.394-.291-2.782-.606c-1.305-.294-2.6-.606-3.9-.93-.906-.228-1.812-.456-2.712-.7-1.312-.351-2.611-.725-3.908-1.107-.858-.254-1.72-.5-2.571-.765-1.371-.427-2.727-.883-4.081-1.344-.8-.272-1.6-.53-2.4-.811-.389-.139-.771-.285-1.156-.425q-2.129-.78-4.223-1.608c-.427-.169-.856-.336-1.278-.509q-2.535-1.027-5.017-2.129c-.262-.116-.518-.239-.78-.357q-2.136-.966-4.229-1.988c-.437-.213-.875-.427-1.308-.642-1.616-.8-3.219-1.627-4.793-2.48l-.076-.042c-1.555-.845-3.08-1.717-4.593-2.607-.41-.241-.815-.484-1.221-.727q-1.993-1.2-3.936-2.444c-.209-.133-.42-.264-.629-.4q-2.2-1.429-4.324-2.93c-.361-.254-.718-.511-1.077-.769q-1.736-1.245-3.426-2.533c-.3-.226-.6-.45-.9-.678q-2.022-1.568-3.969-3.2c-.292-.243-.575-.492-.862-.737q-1.591-1.353-3.127-2.746c-.317-.287-.634-.572-.946-.862q-1.847-1.708-3.614-3.467c-.184-.184-.359-.374-.541-.558q-1.515-1.537-2.962-3.112c-.3-.327-.6-.655-.9-.987-1.107-1.232-2.193-2.472-3.238-3.737l-.027-.034c-1.035-1.255-2.028-2.533-3-3.819-.262-.346-.52-.7-.777-1.046q-1.252-1.7-2.431-3.435c-.133-.2-.273-.389-.4-.585q-1.331-1.99-2.552-4.029c-.209-.346-.41-.7-.613-1.041q-.992-1.686-1.91-3.4c-.163-.3-.332-.606-.492-.913q-1.087-2.082-2.064-4.206c-.144-.311-.277-.625-.416-.94q-.789-1.759-1.5-3.545c-.146-.365-.3-.731-.435-1.1-.556-1.451-1.079-2.913-1.557-4.386-.072-.222-.133-.446-.2-.668q-.609-1.93-1.122-3.887c-.106-.4-.211-.8-.311-1.206-.376-1.515-.727-3.036-1.018-4.569a77.867,77.867,0,0,1-1.1-21.68q.323-3.508.967-6.933v0l-3.984,21.2a76.711,76.711,0,0,0,.133,28.614c.292,1.536.642,3.057,1.018,4.571.1.4.2.8.311,1.206q.517,1.955,1.122,3.887c.07.222.131.446.2.665.475,1.475,1,2.934,1.555,4.383.142.372.292.739.439,1.107q.71,1.784,1.493,3.541c.142.313.275.63.418.94q.976,2.123,2.064,4.206c.161.306.33.608.492.915q.919,1.711,1.905,3.395c.2.349.408.7.617,1.046q1.226,2.034,2.55,4.029c.133.2.273.391.406.587q1.179,1.733,2.431,3.433.387.523.775,1.044c.974,1.287,1.967,2.565,3,3.822l.027.034c1.046,1.265,2.134,2.51,3.243,3.741.294.327.594.653.891.978q1.454,1.581,2.97,3.12c.18.184.355.37.534.551q1.765,1.765,3.615,3.469c.315.289.634.575.951.862q1.534,1.391,3.122,2.744c.289.247.573.494.862.739q1.949,1.629,3.971,3.2c.3.228.6.45.894.678q1.689,1.287,3.424,2.529c.361.26.72.52,1.084.775q2.126,1.492,4.32,2.926c.211.139.429.27.642.408q1.933,1.242,3.919,2.434c.41.245.82.49,1.234.733,1.508.887,3.034,1.762,4.584,2.6l.078.044c1.576.853,3.181,1.675,4.8,2.482.431.215.862.425,1.295.636q2.094,1.02,4.231,1.988c.264.12.524.245.788.363q2.478,1.1,5.009,2.125c.429.175.86.342,1.291.513q2.088.827,4.206,1.6c.391.142.777.289,1.168.429.194.07.385.144.577.211.6.211,1.21.393,1.81.6,1.356.461,2.714.917,4.088,1.346.851.266,1.711.511,2.569.765,1.3.38,2.6.756,3.91,1.109.9.241,1.8.469,2.71.7q1.939.488,3.9.932,1.388.314,2.78.606c1.318.275,2.643.528,3.971.773.583.108,1.156.239,1.739.34.376.063.756.11,1.132.173,1.054.175,2.113.332,3.173.488s2.136.311,3.209.448,2.131.254,3.2.37,2.163.232,3.249.327,2.151.173,3.228.247,2.18.15,3.274.2,2.174.091,3.262.125c.7.021,1.4.066,2.1.078.526.011,1.056,0,1.582.008s1.022.008,1.534.008c1.954,0,3.912-.023,5.877-.093q2.592-.092,5.14-.266c.575-.038,1.139-.091,1.709-.135,1.124-.087,2.246-.175,3.359-.285.663-.065,1.318-.146,1.977-.218,1.008-.114,2.015-.228,3.01-.357.689-.091,1.371-.192,2.053-.292.6-.085,1.2-.158,1.791-.251.281-.044.551-.1.83-.148,1.352-.22,2.687-.463,4.018-.716.547-.1,1.1-.2,1.641-.306,1.85-.376,3.684-.777,5.492-1.217.253-.061.5-.133.754-.2q2.329-.58,4.607-1.227c.587-.167,1.166-.349,1.747-.522,1.183-.355,2.355-.718,3.515-1.1q.941-.311,1.869-.634,1.689-.583,3.342-1.208c.583-.22,1.166-.435,1.743-.661,1.263-.5,2.51-1.016,3.743-1.546.372-.161.754-.311,1.124-.475q2.383-1.055,4.688-2.193c.384-.188.756-.391,1.139-.585,1.147-.581,2.281-1.172,3.4-1.785.188-.1.384-.2.57-.3.465-.258.91-.532,1.371-.8.6-.346,1.206-.693,1.8-1.048.667-.4,1.32-.811,1.975-1.221.581-.365,1.166-.727,1.737-1.1.646-.422,1.278-.858,1.91-1.291.556-.38,1.115-.758,1.66-1.147.623-.446,1.232-.9,1.844-1.358.528-.4,1.065-.788,1.584-1.191.118-.093.245-.182.363-.275.279-.218.534-.45.809-.67.917-.735,1.821-1.479,2.7-2.237.427-.368.847-.737,1.265-1.111q1.255-1.115,2.455-2.267c.376-.359.756-.712,1.124-1.075q1.521-1.5,2.957-3.053c.116-.127.239-.247.355-.372,1.063-1.164,2.083-2.353,3.074-3.559.294-.357.573-.723.86-1.084.691-.87,1.369-1.749,2.022-2.638.319-.433.63-.87.938-1.308q.925-1.312,1.791-2.651c.268-.416.545-.828.8-1.246q1.1-1.759,2.1-3.56c.074-.131.154-.26.228-.393.729-1.333,1.409-2.687,2.058-4.054.053-.114.116-.224.171-.338.15-.323.277-.657.422-.98.406-.9.8-1.808,1.173-2.723C619.311,261.433,619.506,260.924,619.7,260.413Z" transform="translate(-366.054 -102.493)" fill="url(#linear-gradient)"/>
          <g id="Group_12" data-name="Group 12" transform="translate(3.984)">
            <path id="Path_60" data-name="Path 60" d="M478.277,142.5c70.614-2.5,136.338,40.133,146.8,95.222S586.794,339.505,516.18,342c-70.633,2.5-136.359-40.148-146.826-95.237S407.644,144.992,478.277,142.5Z" transform="translate(-367.94 -142.391)" fill="url(#radial-gradient)"/>
          </g>
        </g>
      </g>
    </g>
  </g>
</svg>
