<svg xmlns="http://www.w3.org/2000/svg" width="57.207" height="40" viewBox="0 0 57.207 40">
  <g id="quote_icon" data-name="quote icon" transform="translate(-2.662 20.119)">
    <g id="quote" transform="translate(2.662 -97.118)">
      <g id="Group_1554" data-name="Group 1554" transform="translate(0 77)">
        <g id="Group_1553" data-name="Group 1553">
          <path id="Path_2699" data-name="Path 2699" d="M14.107,90.187l-.106,0a2.236,2.236,0,1,0-.115,4.468l.125,0a8.94,8.94,0,1,1-.183,17.875,9.092,9.092,0,0,1-9.219-8.939A32.751,32.751,0,0,1,9.1,86.708a25.427,25.427,0,0,1,4.532-5.8,2.188,2.188,0,0,0,.2-3.149,2.356,2.356,0,0,0-3.253-.2A29.1,29.1,0,0,0,5.209,84.3,37.448,37.448,0,0,0,0,103.592,13.638,13.638,0,0,0,13.828,117a13.638,13.638,0,0,0,13.828-13.408A13.124,13.124,0,0,0,23.7,94.2,13.958,13.958,0,0,0,14.107,90.187Z" transform="translate(0 -77)" fill="#e9784a"/>
          <path id="Path_2700" data-name="Path 2700" d="M295.7,94.2a13.957,13.957,0,0,0-9.589-4.011l-.106,0a2.236,2.236,0,1,0-.115,4.468l.125,0a8.945,8.945,0,1,1-9.4,8.936A32.751,32.751,0,0,1,281.1,86.708a25.426,25.426,0,0,1,4.532-5.8,2.187,2.187,0,0,0,.2-3.149,2.355,2.355,0,0,0-3.253-.2,29.1,29.1,0,0,0-5.366,6.741A37.448,37.448,0,0,0,272,103.592a13.835,13.835,0,0,0,27.656,0A13.124,13.124,0,0,0,295.7,94.2Z" transform="translate(-242.45 -77)" fill="#e9784a"/>
        </g>
      </g>
    </g>
  </g>
</svg>
