<!DOCTYPE svg PUBLIC "-//W3C//DTD SVG 1.1//EN" "http://www.w3.org/Graphics/SVG/1.1/DTD/svg11.dtd">
<!-- Uploaded to: SVG Repo, www.svgrepo.com, Transformed by: SVG Repo Mixer Tools -->
<svg fill="#e9784a" height="800px" width="800px" version="1.1" id="Layer_1" xmlns="http://www.w3.org/2000/svg" xmlns:xlink="http://www.w3.org/1999/xlink" viewBox="0 0 504 504" xml:space="preserve">
<g id="SVGRepo_bgCarrier" stroke-width="0"/>
<g id="SVGRepo_tracerCarrier" stroke-linecap="round" stroke-linejoin="round"/>
<g id="SVGRepo_iconCarrier"> <g> <g> <path d="M415.986,127.048l8.168-8.168l8.472,8.472c0.208,0.212,0.436,0.388,0.692,0.54c2.508,2.216,5.696,3.424,9.076,3.424 c3.664,0,7.116-1.428,9.712-4.024c5.352-5.352,5.352-14.064,0-19.424l-28.144-28.14c-5.188-5.188-14.236-5.188-19.42,0 c-2.596,2.592-4.024,6.048-4.024,9.716c0,3.36,1.204,6.536,3.4,9.044c0.16,0.252,0.352,0.492,0.572,0.716l8.536,8.532 l-8.168,8.168c-35.576-33.192-81.908-54.932-133.136-59.42c7.292-5.812,11.984-14.752,11.984-24.776 C283.706,14.224,269.482,0,252.002,0c-17.48,0-31.704,14.224-31.704,31.704c0,10.028,4.692,18.964,11.984,24.776 c-51.2,4.484-97.504,26.2-133.064,59.364l-8.108-8.108l8.54-8.528c0.212-0.216,0.4-0.456,0.556-0.7 c4.736-5.392,4.532-13.632-0.608-18.776c-5.196-5.188-14.244-5.188-19.42,0l-28.148,28.14c-5.356,5.36-5.356,14.072,0,19.424 c2.592,2.596,6.048,4.024,9.716,4.024c3.364,0,6.536-1.196,9.04-3.392c0.26-0.164,0.508-0.352,0.728-0.572l8.468-8.472 l8.104,8.104c-37.38,40.076-60.32,93.78-60.32,152.776C27.766,403.412,128.358,504,252.002,504s224.232-100.588,224.232-224.236 C476.234,220.804,453.326,167.12,415.986,127.048z M252.002,16.068c8.624,0,15.64,7.016,15.64,15.64 c0,5.74-3.824,10.712-7.76,13.428V31.704c0-4.348-3.528-7.876-7.88-7.876s-7.876,3.528-7.876,7.876v13.428 c-3.94-2.72-7.764-7.692-7.764-13.428C236.362,23.084,243.378,16.068,252.002,16.068z M412.242,363.088l-12.62-7.236 c-3.764-2.176-8.584-0.864-10.756,2.908c-2.176,3.768-0.884,8.6,2.884,10.772l12.592,7.272 c-14.196,22.2-33.088,41.1-55.292,55.292l-7.264-12.592c-2.176-3.768-6.996-5.064-10.756-2.884 c-3.768,2.176-5.06,6.992-2.888,10.76l7.284,12.624c-22.776,11.908-47.972,19.108-75.54,20.28v-38.512 c0-4.344-3.528-7.876-7.88-7.876s-7.876,3.532-7.876,7.876v38.512c-27.572-1.172-52.756-8.372-75.544-20.28l7.284-12.62 c2.172-3.764,0.892-8.584-2.884-10.756c-3.764-2.184-8.584-0.884-10.756,2.88l-7.272,12.592 c-22.196-14.192-41.092-33.088-55.288-55.288l12.588-7.268c3.768-2.176,5.064-6.992,2.888-10.76 c-2.172-3.764-6.992-5.064-10.764-2.88l-12.612,7.188c-11.912-22.784-19.112-48.072-20.284-75.64h38.512 c4.352,0,7.88-3.528,7.88-7.876c0-4.352-3.528-7.876-7.88-7.876H71.486c1.172-27.572,8.376-52.66,20.284-75.44l12.612,7.332 c1.244,0.72,2.596,1.08,3.932,1.08c2.724,0,5.372-1.404,6.832-3.924c2.176-3.768,0.884-8.58-2.888-10.752l-12.588-7.268 c14.192-22.2,33.092-41.092,55.288-55.284l7.264,12.592c1.46,2.524,4.108,3.936,6.836,3.936c1.332,0,2.688-0.336,3.928-1.056 c3.764-2.176,5.056-6.992,2.884-10.76l-7.284-12.62c22.784-11.908,47.972-19.112,75.544-20.28v38.508 c0,4.352,3.524,7.876,7.876,7.876c4.352,0,7.88-3.524,7.88-7.876V99.256c27.568,1.168,52.76,8.372,75.54,20.284l-7.284,12.62 c-2.172,3.764-0.88,8.584,2.888,10.756c1.244,0.716,2.596,1.06,3.928,1.06c2.724,0,5.372-1.412,6.828-3.94l7.264-12.592 c22.204,14.192,41.096,33.088,55.292,55.288L391.75,190c-3.764,2.172-5.06,6.992-2.884,10.76c1.456,2.528,4.104,3.944,6.828,3.944 c1.336,0,2.688-0.34,3.928-1.06l12.62-7.384c11.908,22.78,19.112,47.872,20.284,75.44h-38.512c-4.352,0-7.88,3.524-7.88,7.876 c0,4.348,3.528,7.876,7.88,7.876h38.512C431.354,315.016,424.146,340.308,412.242,363.088z"/> </g> </g> <g> <g> <path d="M263.818,262.88v-97.464c0-6.488-5.34-11.756-11.816-11.756s-11.816,5.268-11.816,11.756v97.256 c-3.936,3.728-9.06,9.996-9.06,17.092c0,7.1,5.12,13.368,9.06,17.096v26.264c0,6.48,5.34,11.752,11.816,11.752 s11.816-5.272,11.816-11.752v-26.472c3.936-3.752,8.816-9.908,8.816-16.892C272.634,272.784,267.754,266.624,263.818,262.88z"/> </g> </g> </g>
</svg>